<svg width="300" height="150" role="img" viewBox="0 0 300 150" style="pointer-events: all; width: 100%; height: 100%;" xmlns="http://www.w3.org/2000/svg" xmlns:xlink="http://www.w3.org/1999/xlink">
    <g clip-path="url(#victory-clip-4)" style="width: 100%; height: 100%;">
        <defs>
            <clipPath id="victory-clip-4">
                <rect vector-effect="non-scaling-stroke" x="50" y="50" width="200" height="50"></rect>
            </clipPath>
        </defs>
        <path d="M50,75.84979917197305L50.726782248261934,71.87174598793152L51.44625676724245,71.45023440913846L52.11034260068078,72.59802364596034L52.76137161711629,70.79222381459863L53.47941525204169,65.4347625128172L54.161556705220825,71.18282617214959L54.95199006529767,72.79107140162672L55.615065453015276,74.25734192175464L56.3488093238635,74.2475234737671L56.954946675933805,72.14797918589284L57.72807934698075,69.55018431510995L59.07484089225516,66.01840610753524L59.81131645084495,70.19572830620983L60.52156223224277,68.47211136372647L61.23463958452238,63.86669270189998L61.88776150117484,63.11087761069343L62.5891037459116,62.343796727872245L63.24726395398537,85.94234977996742L63.967330803215965,70.17247113835111L64.7125194236413,73.7523645281433L65.36474239203187,70.10413776399429L66.07635169443675,69.35651195010342L66.77174043944424,70.59038803391942L67.43441397173727,71.0743679677755L68.14741699237766,69.53796889326857L68.8326013970376,59.477711179301L69.5425661119246,67.86222161505754L70.25938095193905,64.6674515610928L70.95681613988899,71.58633332795912L71.66641616517103,68.95621016381253L72.39296148133293,70.52137500405004L73.03593712923103,73.53088730130352L73.68565140479771,76.13148549100399L75.13582684314562,67.12281765763437L75.79877679622203,70.92614208615021L76.45556883756129,72.1037007122056L77.1641491256677,75.02025829993497L77.88199764004014,69.41489387080209L78.53813695667245,67.23531558599248L79.2717670071981,72.72347699460124L80.03061174346753,72.05744201518682L80.71577291949023,73.08004545600285L81.35175210184615,81.96506993197778L82.05887130866901,69.01558139627123L83.49019206215445,72.95805230811527L84.13083323200809,74.50101032101497L84.85249124289086,73.76186691601328L85.53468379907196,64.73030055072498L86.25373091112692,69.69059050188277L87.63061767606149,59.917268697631314L88.33553480807228,72.03235068889671L89.09751773323529,72.10242930681447L89.76181494727268,70.95117619376438L90.43436297326417,69.89074062224883L91.8466385670616,69.44702600718732L93.24805709580455,75.27025699563164L93.93463754156373,71.60055961368066L94.62502980669697,70.40971659678598L95.29781941051596,67.82458424491841L96.7278463289061,72.98485066290938L97.44351135137626,69.71689575667753L98.16353174333233,67.81112922352042L98.77492573601418,72.32885367692401L100.15713882747204,69.26305199699988L100.89472471492277,71.45812594799777L101.56390691137555,73.59803820106404L102.27995288349678,71.4669185008861L102.97276324976858,71.43166418589077L103.66514620911485,72.26738592991046L104.34015647065573,71.09075267210599L105.09915451593105,73.61320653392657L105.80613435093038,69.849849042823L106.4616999202224,67.65575185206207L107.16611763653216,67.68854234944101L107.861952371375,67.78343493492793L108.58827469261921,69.72310630584066L109.26086917588523,67.60103247911864L109.96923808339261,69.09101000933096L111.3139206656324,69.52277185558316L112.02645214493643,68.50441670908504L113.40076517686279,67.83529877598876L114.11958000254516,65.86839365399717L115.51312402325757,62.28325511706831L116.15902415658647,65.25097686573109L116.91542756308006,69.26580165176173L117.62555255556416,68.88252430487177L118.29971032611763,69.05089478892137L118.9839586166961,71.18608806480349L119.63781688114963,72.75793805412668L120.440377912739,68.71521306844325L121.07495873113197,73.92423791405027L121.78367142247077,68.66520617475601L122.47215197075766,68.5487726482011L123.15410759483873,71.63784313058002L123.85251838555351,76.67729350170914L124.54708019107458,76.01468366403074L125.25524700943781,88.89227786155494L125.99470744791526,63.031662657441274L126.67855156020543,73.18949778887657L127.35017973216151,69.53527166857882L128.07832317856676,71.78376650760043L129.48784153312164,69.76077955485209L130.19458675888467,56.2799647571823L131.56039114098334,68.18256488800581L132.24775671468186,72.86981020080445L132.9090899546051,68.71374952719952L134.31127735124127,73.37197669273056L135.02510034277688,75.85620311107357L135.7675619211881,73.30632690301778L136.4682514412179,71.363763037624L137.10827240645673,66.37614760225878L137.86632504619567,75.12016507056657L138.5568590060162,75.62197209097963L139.18991602580502,74.94223447489665L140.56232663233993,75.47396501340347L141.98810271011183,70.06731988110059L142.67976325883936,72.46427987570644L143.3879393686575,68.50494352235799L144.16029620322,72.96257605048991L144.81992446116848,67.13507435732437L146.18836064786854,72.16713241980813L146.9144274541029,67.7974761771651L147.5825457789693,73.74233519496163L148.94034092694133,81.83385869606892L149.71406825110208,75.55858909520734L150.37582889795087,80.00894357077414L151.71533381694582,74.45687845762204L152.50589958025506,80.66057735934686L153.18359507226296,57.39817707044783L154.55170373517765,72.05734285317295L155.2176083709133,79.36678536616226L155.95766346250457,82.24924788810263L156.68516347565782,72.17086772039917L157.31754221923867,72.7489555381838L158.03200399829888,70.6804164272983L158.68490988862484,96.79352130853357L160.09995433598345,81.14043222318901L160.85623927642703,77.03926050713984L161.52166540223516,80.86644290604819L162.21188345258898,83.75767859315317L162.93829171979104,80.58484262610011L163.5949467121705,65.51980367345529L164.28653989785,67.62085549660446L164.9838008710205,74.68680091429468L165.69697578357656,70.12978570799092L166.37712189681523,74.44250359966156L167.12658458649605,75.05613090822932L167.77972508605833,75.76799353304446L168.49601728173448,66.598370524592L169.929226523429,73.26089657258237L170.53922912073904,69.45072304820275L171.26866175651213,64.93461083488529L171.9839946094695,68.14467313901986L172.65761812136608,70.93418695406622L173.38120178627756,71.25851766081962L174.0680029040907,75.91794451888349L174.7234964646072,79.57700615471516L175.44373752861725,74.83377349514181L176.12039702340346,70.24888998731156L176.8295324759403,75.23124548530606L177.55551101335314,66.57022805086402L178.22992197605274,73.51441078043248L178.90254433368347,71.21225758294538L179.60614440196173,61.02658948690438L180.33734938275762,64.07199342181197L181.02140022991938,76.33160094260529L181.70314911912882,70.51575033566975L182.48876718270205,66.85000159217589L183.09812634676013,50L183.83213270120933,79.46653129399583L184.50053673831397,70.52193790229532L185.2476440441768,71.17173530259376L185.91844992237395,83.39580935124597L186.58186444819552,88.71395272074633L187.28804754093693,91.8996352714242L187.98496937600342,77.34318728638044L188.66595636591086,81.91858810719198L189.407172889365,85.41133990149869L190.75688911729867,72.7690278900775L191.47175507464712,77.18697899259391L192.15011722854436,73.3292741328977L192.91789802156703,92.16294560628903L193.56524065326965,95.69529773176664L194.30825739611134,73.69237048260028L194.89358421206205,79.44374573994111L195.619137665413,80.47373516956087L196.41677422590362,79.5789636841179L197.03947359633906,73.72874503508686L197.66235647300877,73.38396358778418L198.4886618176035,68.72090188345965L199.15747467872384,72.95859365382057L199.77114740072074,74.68329598303384L200.5659547131933,70.409445761306L201.16655435814124,68.5068104951654L201.9159101960907,75.34666684579709L202.6306344587519,74.8475408529757L203.34279660272355,75.90892666589315L204.02256408917486,74.99614792291447L204.70122821535645,78.80562902194315L205.41369000874872,83.05378540001058L206.09425656032175,85.35965802968269L206.85739394875648,73.69200136457499L207.48575878381916,72.75364141886806L208.25051985399824,66.10526954063431L208.8751379098712,64.07304265418658L210.30643311185563,69.19757140543432L211.64636543777613,70.5343664517757L212.4075260691802,74.8468695908409L213.04665505474833,73.87253604114743L213.79152079711577,70.79378661360501L215.1591648872853,65.60332282994906L216.54486692005935,72.08124994970336L217.33295651063685,61.545255978033296L218.00743019065706,72.65255610882447L218.65073103947677,62.453267179611956L219.3797711112802,74.3937274880376L220.12808166055302,74.48122578091652L220.75094595431295,76.21262112502926L222.17523075357286,70.27512483500053L222.84824335230957,73.58517968103945L223.52793186139422,75.37660319123714L224.25909967637048,65.27363515382648L224.9380890034737,80.48619489827715L225.65373544303404,61.882595344462395L226.99707541004034,65.64570739705854L227.72081702968518,71.16302901325797L228.38686800583554,72.04478350066441L229.0890650644234,71.18834499861885L230.47711318956055,73.03124939129708L231.23409498912184,71.70014642701152L232.5888123426572,72.91216287283574L233.235035354044,74.86655107366836L233.94826369246576,70.95675834589073L234.7174265894053,72.40992258281716L235.36727094534064,77.66771384684822L236.11319591356704,74.25107489336165L236.72901496164656,77.12720384234945L237.50970623125733,76.65124970452692L238.11586448910117,72.25803052991682L238.86794736906475,72.82403892407073L239.60503848654187,74.08206672709542L240.29674781540763,81.30727453797172L240.96353049363165,83.21677384463528L242.34233826686744,75.90549877961674L243.0526026311751,75.52792221020573L243.69288375715124,100L245.1397909262369,70.2301195567344L245.88503994111912,62.06998166353112L246.55412690015913,66.51702954342764L247.9390298678115,69.92194882095609L248.65306191708243,73.7270559967887L249.351516842208,73.78780465371567L250,82.08166642936781" role="presentation" shape-rendering="auto" style="fill: transparent; stroke: rgb(255, 255, 255); stroke-width: 2;"></path>
    </g>
</svg>